HIERARCHY
ROOT Hips
{
	OFFSET 0.000000 0.000000 0.000000
	CHANNELS 6 Xposition Yposition Zposition Zrotation Yrotation Xrotation 
	JOINT LowerBack
	{
		OFFSET 0.000000 0.000000 0.000000
		CHANNELS 3 Zrotation Yrotation Xrotation
		JOINT Spine
		{
			OFFSET 0.028270 2.035590 -0.193380
			CHANNELS 3 Zrotation Yrotation Xrotation
			JOINT Spine1
			{
				OFFSET 0.056720 2.048850 -0.042750
				CHANNELS 3 Zrotation Yrotation Xrotation
				JOINT Neck
				{
					OFFSET 0.000000 0.000000 0.000000
					CHANNELS 3 Zrotation Yrotation Xrotation
					JOINT Neck1
					{
						OFFSET -0.054170 1.746240 0.172020
						CHANNELS 3 Zrotation Yrotation Xrotation
						JOINT Head
						{
							OFFSET 0.104070 1.761360 -0.123970
							CHANNELS 3 Zrotation Yrotation Xrotation
							End Site
							{
								OFFSET 0.000000 0.000000 0.000000
							}
						}
					}
				}
				JOINT LeftShoulder
				{
					OFFSET 0.000000 0.000000 0.000000
					CHANNELS 3 Zrotation Yrotation Xrotation
					JOINT LeftArm
					{
						OFFSET 3.362410 1.200890 -0.311210
						CHANNELS 3 Zrotation Yrotation Xrotation
						JOINT LeftForeArm
						{
							OFFSET 4.983000 -0.000000 -0.000000
							CHANNELS 3 Zrotation Yrotation Xrotation
							JOINT LeftHand
							{
								OFFSET 3.483560 -0.000000 -0.000000
								CHANNELS 3 Zrotation Yrotation Xrotation
								JOINT LeftFingerBase
								{
									OFFSET 0.000000 0.000000 0.000000
									CHANNELS 3 Zrotation Yrotation Xrotation
									JOINT LeftHandIndex1
									{
										OFFSET 0.715260 -0.000000 -0.000000
										CHANNELS 3 Zrotation Yrotation Xrotation
										End Site
										{
											OFFSET 0.000000 0.000000 0.000000
										}
									}
								}
								JOINT LThumb
								{
									OFFSET 0.000000 0.000000 0.000000
									CHANNELS 3 Zrotation Yrotation Xrotation
									End Site
									{
										OFFSET 0.000000 0.000000 0.000000
									}
								}
							}
						}
					}
				}
				JOINT RightShoulder
				{
					OFFSET 0.000000 0.000000 0.000000
					CHANNELS 3 Zrotation Yrotation Xrotation
					JOINT RightArm
					{
						OFFSET -3.136600 1.374050 -0.404650
						CHANNELS 3 Zrotation Yrotation Xrotation
						JOINT RightForeArm
						{
							OFFSET -5.241900 -0.000000 -0.000000
							CHANNELS 3 Zrotation Yrotation Xrotation
							JOINT RightHand
							{
								OFFSET -3.444170 -0.000000 -0.000000
								CHANNELS 3 Zrotation Yrotation Xrotation
								JOINT RightFingerBase
								{
									OFFSET 0.000000 0.000000 0.000000
									CHANNELS 3 Zrotation Yrotation Xrotation
									JOINT RightHandIndex1
									{
										OFFSET -0.622530 -0.000000 -0.000000
										CHANNELS 3 Zrotation Yrotation Xrotation
										End Site
										{
											OFFSET 0.000000 0.000000 0.000000
										}
									}
								}
								JOINT RThumb
								{
									OFFSET 0.000000 0.000000 0.000000
									CHANNELS 3 Zrotation Yrotation Xrotation
									End Site
									{
										OFFSET 0.000000 0.000000 0.000000
									}
								}
							}
						}
					}
				}
			}
		}
	}
}
}
MOTION
Frames: 15
Frame Time: 0.008333
2.253397 17.346160 0.471089 8.110694 83.785124 23.681388 -0.636094 -0.967547 -3.674234 -1.025261 -1.112792 -3.902104 -7.066016 -1.282201 -0.468212 9.679953 -0.906804 -3.724233 -4.502347 -0.378633 1.019020 0.000000 0.000000 0.000000 -5.159586 2.564983 2.632791 -65.450670 4.969343 10.798277 -3.686498 -14.256554 -0.002671 2.802595 2.441587 0.061679 -0.078061 -0.006097 -0.000000 0.000000 0.000000 0.000000 0.000000 0.000000 0.000000 18.912681 2.061550 0.662701 71.178747 22.590599 16.604917 2.577335 29.933491 0.008262 0.199327 6.592750 0.009359 0.053943 -0.162044 0.000000 0.000000 0.000000 0.000000 0.000000 0.000000 0.000000 
2.529608 17.315686 0.494117 7.721578 83.401646 23.168304 -0.835612 -0.759983 -3.668684 -1.069317 -0.888171 -3.925560 -7.010762 -1.056955 -0.548168 9.591767 -0.843375 -3.666291 -4.467030 -0.377738 1.036597 0.000000 0.000000 0.000000 -5.235049 2.785023 2.670608 -65.611196 6.529087 10.467883 -3.760353 -13.155908 -0.002914 2.274404 2.674330 0.055329 -0.079563 -0.013646 -0.000000 0.000000 0.000000 0.000000 0.000000 0.000000 0.000000 18.680298 2.447163 0.607397 71.446834 24.205270 18.693025 2.495603 31.657982 0.008513 0.373355 6.632691 0.019994 0.050290 -0.174293 0.000000 0.000000 0.000000 0.000000 0.000000 0.000000 0.000000 
2.808177 17.277049 0.513400 6.384640 82.970460 21.716106 -0.901912 -0.533852 -3.672920 -1.090115 -0.655845 -3.952351 -6.957369 -0.822638 -0.628594 9.484046 -0.753942 -3.606459 -4.426153 -0.376455 1.055619 0.000000 0.000000 0.000000 -5.349064 3.057063 2.706295 -65.712149 8.107544 10.293316 -3.827590 -12.237655 -0.003243 1.774058 2.867824 0.046881 -0.081323 -0.021442 -0.000000 0.000000 0.000000 0.000000 0.000000 0.000000 0.000000 18.393425 2.867971 0.550760 71.640392 25.825605 20.627744 2.418981 33.374560 0.008822 0.531843 6.692873 0.030027 0.046804 -0.187005 0.000000 0.000000 0.000000 0.000000 0.000000 0.000000 0.000000 
3.089145 17.230625 0.528968 4.263059 82.501169 19.487422 -0.830112 -0.292713 -3.683840 -1.086806 -0.419607 -3.979199 -6.906614 -0.582683 -0.700554 9.363678 -0.677557 -3.556957 -4.381439 -0.374789 1.072758 0.000000 0.000000 0.000000 -5.497818 3.377168 2.735587 -65.761142 9.697197 10.260884 -3.885387 -11.503259 -0.003632 1.317140 3.022393 0.037334 -0.083057 -0.029561 -0.000000 0.000000 0.000000 0.000000 0.000000 0.000000 0.000000 18.074315 3.278646 0.494756 71.750025 27.498464 22.489419 2.347582 35.054712 0.009117 0.636074 6.781209 0.036960 0.044063 -0.199965 0.000000 0.000000 0.000000 0.000000 0.000000 0.000000 0.000000 
3.372294 17.176792 0.541021 1.556190 82.000894 16.670674 -0.624019 -0.041007 -3.689045 -1.059394 -0.183072 -4.004692 -6.857252 -0.340927 -0.770130 9.229030 -0.579643 -3.509636 -4.331140 -0.372634 1.089980 0.000000 0.000000 0.000000 -5.672218 3.745415 2.762125 -65.767256 11.282304 10.361019 -3.933339 -10.932460 -0.004054 0.916468 3.140005 0.027789 -0.084645 -0.037836 -0.000000 0.000000 0.000000 0.000000 0.000000 0.000000 0.000000 17.707194 3.711538 0.436322 71.788718 29.170462 24.192039 2.277057 36.715687 0.009360 0.701447 6.884751 0.041894 0.041662 -0.213121 0.000000 0.000000 0.000000 0.000000 0.000000 0.000000 0.000000 
3.656880 17.116072 0.550151 -1.416781 81.480259 13.552883 -0.313128 0.212514 -3.653078 -1.011646 0.048758 -4.021523 -6.805845 -0.102443 -0.838132 9.079335 -0.444842 -3.464007 -4.272922 -0.369741 1.106798 0.000000 0.000000 0.000000 -5.853178 4.174166 2.789376 -65.740590 12.812047 10.592844 -3.972028 -10.483206 -0.004479 0.581974 3.223356 0.019047 -0.086055 -0.045973 -0.000000 0.000000 0.000000 0.000000 0.000000 0.000000 0.000000 17.279259 4.177408 0.370554 71.773134 30.819502 25.686667 2.203774 38.350201 0.009504 0.734843 7.002025 0.044924 0.039280 -0.226447 0.000000 0.000000 0.000000 0.000000 0.000000 0.000000 0.000000 
3.943105 17.049181 0.556586 -4.495159 80.941345 10.297031 0.084867 0.465565 -3.579701 -0.946020 0.274960 -4.029351 -6.753011 0.131512 -0.902328 8.919136 -0.304535 -3.424666 -4.208629 -0.366241 1.122010 0.000000 0.000000 0.000000 -6.037600 4.630660 2.813981 -65.685165 14.309173 10.898375 -4.001696 -10.164452 -0.004876 0.317084 3.282686 0.011708 -0.087159 -0.054032 -0.000000 0.000000 0.000000 0.000000 0.000000 0.000000 0.000000 16.809520 4.639546 0.301466 71.695583 32.465555 27.024905 2.128038 39.939388 0.009484 0.716938 7.122278 0.044750 0.037287 -0.239696 -0.000000 0.000000 0.000000 0.000000 0.000000 0.000000 0.000000 
4.230260 16.976892 0.561173 -7.326641 80.398090 7.224095 0.512152 0.708538 -3.438236 -0.870981 0.491993 -4.022106 -6.693662 0.356923 -0.962946 8.745748 -0.140138 -3.391172 -4.135274 -0.361848 1.135098 0.000000 0.000000 0.000000 -6.200847 5.137802 2.839627 -65.608998 15.706277 11.287680 -4.024616 -9.917899 -0.005223 0.122374 3.320745 0.006074 -0.088083 -0.061665 -0.000000 0.000000 0.000000 0.000000 0.000000 0.000000 0.000000 16.279469 5.112749 0.221640 71.582486 34.075122 28.142758 2.047135 41.472829 0.009292 0.671768 7.242616 0.042670 0.035118 -0.252861 -0.000000 0.000000 0.000000 0.000000 0.000000 0.000000 0.000000 
4.518556 16.900423 0.564586 -9.705474 79.859141 4.548865 0.921424 0.938493 -3.242613 -0.795108 0.700277 -4.002750 -6.629086 0.573477 -1.021030 8.566187 0.028568 -3.363530 -4.055569 -0.356816 1.146091 0.000000 0.000000 0.000000 -6.338836 5.659653 2.864134 -65.508899 17.030072 11.701291 -4.043915 -9.749352 -0.005516 -0.009719 3.347764 0.002243 -0.088886 -0.068940 -0.000000 0.000000 0.000000 0.000000 0.000000 0.000000 0.000000 15.713557 5.572862 0.135607 71.430614 35.648092 29.065329 1.962260 42.935212 0.008914 0.600894 7.349631 0.038784 0.032830 -0.265749 -0.000000 0.000000 0.000000 0.000000 0.000000 0.000000 0.000000 
4.808182 16.821037 0.567462 -11.504695 79.337748 2.411828 1.271320 1.153137 -3.010232 -0.726152 0.900153 -3.974221 -6.558695 0.781053 -1.074161 8.382898 0.195139 -3.344079 -3.970171 -0.351194 1.154332 0.000000 0.000000 0.000000 -6.441871 6.198790 2.886239 -65.383151 18.258558 12.129830 -4.061750 -9.631956 -0.005753 -0.088810 3.368323 -0.000184 -0.089687 -0.075777 -0.000000 0.000000 0.000000 0.000000 0.000000 0.000000 0.000000 15.118570 6.011174 0.042060 71.254376 37.168966 29.788438 1.874809 44.310724 0.008385 0.520816 7.440240 0.034090 0.030226 -0.278245 -0.000000 0.000000 0.000000 0.000000 0.000000 0.000000 0.000000 
5.099509 16.740064 0.570417 -12.700485 78.846492 0.862115 1.535210 1.352176 -2.769952 -0.670079 1.091977 -3.941895 -6.484477 0.979667 -1.121296 8.201558 0.347934 -3.333533 -3.881363 -0.345191 1.159772 0.000000 0.000000 0.000000 -6.507366 6.740992 2.903948 -65.226406 19.396564 12.545964 -4.080678 -9.556195 -0.005950 -0.128720 3.386993 -0.001406 -0.090604 -0.082206 -0.000000 0.000000 0.000000 0.000000 0.000000 0.000000 0.000000 14.512873 6.413973 -0.056718 71.062484 38.626671 30.325667 1.787454 45.583792 0.007760 0.445745 7.511882 0.029591 0.027219 -0.290206 -0.000000 0.000000 0.000000 0.000000 0.000000 0.000000 0.000000 
5.392991 16.658899 0.574092 -13.316567 78.397610 -0.099569 1.693852 1.535385 -2.550109 -0.631887 1.275323 -3.911133 -6.409730 1.168672 -1.162094 8.030313 0.477043 -3.331520 -3.792022 -0.339064 1.162647 0.000000 0.000000 0.000000 -6.533392 7.270278 2.915674 -65.033522 20.453257 12.925205 -4.103188 -9.515591 -0.006125 -0.143665 3.406328 -0.001826 -0.091756 -0.088269 -0.000000 0.000000 0.000000 0.000000 0.000000 0.000000 0.000000 13.919985 6.769833 -0.157392 70.863486 40.009110 30.695462 1.703024 46.741892 0.007109 0.389200 7.563582 0.026187 0.023736 -0.301509 -0.000000 0.000000 0.000000 0.000000 0.000000 0.000000 0.000000 
5.689261 16.578746 0.578814 -13.472306 77.996978 -0.564513 1.752107 1.704247 -2.381039 -0.612183 1.449471 -3.887324 -6.338187 1.347308 -1.195123 7.875999 0.573050 -3.338375 -3.704799 -0.333039 1.163095 0.000000 0.000000 0.000000 -6.523242 7.777044 2.919272 -64.800256 21.436240 13.251743 -4.130483 -9.503143 -0.006299 -0.147210 3.426981 -0.001944 -0.093207 -0.094017 -0.000000 0.000000 0.000000 0.000000 0.000000 0.000000 0.000000 13.359655 7.068781 -0.256911 70.667287 41.304476 30.923373 1.624633 47.774766 0.006509 0.361500 7.598474 0.024679 0.019796 -0.312019 0.000000 0.000000 0.000000 0.000000 0.000000 0.000000 0.000000 
5.988932 16.500793 0.584908 -13.266259 77.649475 -0.613127 1.715718 1.858784 -2.283913 -0.611286 1.612650 -3.874462 -6.273937 1.513748 -1.220309 7.747142 0.630491 -3.353017 -3.622633 -0.327360 1.161559 0.000000 0.000000 0.000000 -6.480801 8.249655 2.913482 -64.523312 22.356581 13.511242 -4.163679 -9.514375 -0.006493 -0.150897 3.448202 -0.001959 -0.095003 -0.099495 -0.000000 0.000000 0.000000 0.000000 0.000000 0.000000 0.000000 12.854628 7.305086 -0.351332 70.480980 42.500283 31.035733 1.554840 48.676263 0.006023 0.368791 7.620260 0.025571 0.015457 -0.321635 -0.000000 0.000000 0.000000 0.000000 0.000000 0.000000 0.000000 
6.292654 16.426008 0.592375 -12.821818 77.357895 -0.351671 1.602179 1.998807 -2.277063 -0.627040 1.762372 -3.876027 -6.220652 1.665466 -1.237627 7.650162 0.646641 -3.374168 -3.548026 -0.322234 1.158560 0.000000 0.000000 0.000000 -6.414744 8.679132 2.897117 -64.200945 23.225329 13.693651 -4.202968 -9.545883 -0.006721 -0.163225 3.468964 -0.002373 -0.097139 -0.104733 -0.000000 0.000000 0.000000 0.000000 0.000000 0.000000 0.000000 12.422478 7.475955 -0.437197 70.311777 43.583877 31.060893 1.495817 49.443481 0.005704 0.411044 7.634726 0.028864 0.010889 -0.330270 -0.000000 0.000000 0.000000 0.000000 0.000000 0.000000 0.000000 
